<?xml version="1.0" encoding="UTF-8" standalone="no"?>
<!-- Created with Inkscape (http://www.inkscape.org/) -->

<svg
   xmlns:dc="http://purl.org/dc/elements/1.1/"
   xmlns:cc="http://creativecommons.org/ns#"
   xmlns:rdf="http://www.w3.org/1999/02/22-rdf-syntax-ns#"
   xmlns:svg="http://www.w3.org/2000/svg"
   xmlns="http://www.w3.org/2000/svg"
   xmlns:sodipodi="http://sodipodi.sourceforge.net/DTD/sodipodi-0.dtd"
   xmlns:inkscape="http://www.inkscape.org/namespaces/inkscape"
   width="210mm"
   height="297mm"
   viewBox="0 0 210 297"
   version="1.1"
   id="svg8"
   sodipodi:docname="idea2.svg"
   inkscape:version="0.92.4 (5da689c313, 2019-01-14)">
  <defs
     id="defs2" />
  <sodipodi:namedview
     id="base"
     pagecolor="#ffffff"
     bordercolor="#666666"
     borderopacity="1.0"
     inkscape:pageopacity="0.0"
     inkscape:pageshadow="2"
     inkscape:zoom="2"
     inkscape:cx="712.21415"
     inkscape:cy="276.81844"
     inkscape:document-units="mm"
     inkscape:current-layer="layer1"
     showgrid="false"
     inkscape:snap-bbox="true"
     inkscape:bbox-paths="true"
     inkscape:snap-bbox-midpoints="true"
     inkscape:snap-bbox-edge-midpoints="true"
     inkscape:bbox-nodes="true"
     inkscape:window-width="3840"
     inkscape:window-height="2128"
     inkscape:window-x="1920"
     inkscape:window-y="0"
     inkscape:window-maximized="0" />
  <metadata
     id="metadata5">
    <rdf:RDF>
      <cc:Work
         rdf:about="">
        <dc:format>image/svg+xml</dc:format>
        <dc:type
           rdf:resource="http://purl.org/dc/dcmitype/StillImage" />
      </cc:Work>
    </rdf:RDF>
  </metadata>
  <g
     inkscape:label="Ebene 1"
     inkscape:groupmode="layer"
     id="layer1">
    <path
       style="fill:#000000;stroke:#000000;stroke-width:0;stroke-linecap:butt;stroke-linejoin:miter;stroke-opacity:1;fill-opacity:1;stroke-miterlimit:4;stroke-dasharray:none"
       d="M 70.870534,111.60268 107.43973,90.436011 102.36423,84.153228 66.50669,104.85559 Z"
       id="path815"
       inkscape:connector-curvature="0" />
    <path
       style="fill:#000000;fill-opacity:1;stroke:#000000;stroke-width:0;stroke-linecap:butt;stroke-linejoin:miter;stroke-miterlimit:4;stroke-dasharray:none;stroke-opacity:1"
       d="m 70.870534,111.60268 12.201546,-7.06343 3.122343,4.43664 -13.279672,5.32353 -2.044217,-2.69674"
       id="path817"
       inkscape:connector-curvature="0"
       sodipodi:nodetypes="ccccc" />
    <path
       style="fill:#000000;fill-opacity:1;stroke:#000000;stroke-width:0;stroke-linecap:butt;stroke-linejoin:miter;stroke-miterlimit:4;stroke-dasharray:none;stroke-opacity:1"
       d="m 72.914751,114.29942 0.0033,46.27285 -6.226174,-10.81404 -0.185211,-44.90264 z"
       id="path819"
       inkscape:connector-curvature="0"
       sodipodi:nodetypes="ccccc" />
    <path
       style="fill:#0000c1;fill-opacity:1;stroke:#000000;stroke-width:0;stroke-linecap:butt;stroke-linejoin:miter;stroke-miterlimit:4;stroke-dasharray:none;stroke-opacity:1"
       d="m 72.914754,160.49947 12.325132,-7.35541 0.01577,-45.83122 -12.340905,6.98658"
       id="path821"
       inkscape:connector-curvature="0"
       sodipodi:nodetypes="cccc" />
    <path
       style="fill:#0000c1;stroke:#000000;stroke-width:0;stroke-linecap:butt;stroke-linejoin:miter;stroke-opacity:1;fill-opacity:1;stroke-miterlimit:4;stroke-dasharray:none"
       d="m 107.43973,90.436011 -0.0661,9.941249 -24.306124,14.37912 0.0046,-10.21713 z"
       id="path825"
       inkscape:connector-curvature="0"
       sodipodi:nodetypes="ccccc" />
    <path
       style="fill:#0000c1;stroke:#000000;stroke-width:0;stroke-linecap:butt;stroke-linejoin:miter;stroke-opacity:1;fill-opacity:1;stroke-miterlimit:4;stroke-dasharray:none"
       d="m 107.50154,124.5034 -0.0661,9.94125 -24.306121,14.37912 0.0046,-10.21713 z"
       id="path825-7"
       inkscape:connector-curvature="0"
       sodipodi:nodetypes="ccccc" />
    <path
       style="fill:#0000c1;stroke:#000000;stroke-width:0;stroke-linecap:butt;stroke-linejoin:miter;stroke-opacity:1;fill-opacity:1;stroke-miterlimit:4;stroke-dasharray:none"
       d="m 107.50154,107.14109 -0.0661,9.94125 -24.306121,14.37912 0.0046,-10.21713 z"
       id="path825-5"
       inkscape:connector-curvature="0"
       sodipodi:nodetypes="ccccc" />
    <path
       style="fill:#007cc1;stroke:#000000;stroke-width:0;stroke-linecap:butt;stroke-linejoin:miter;stroke-opacity:1;stroke-miterlimit:4;stroke-dasharray:none;fill-opacity:1"
       d="m 107.50154,124.5034 -4.38019,-4.84038 -19.992033,11.79844 0.0046,7.14518 24.367623,-14.10324"
       id="path873"
       inkscape:connector-curvature="0"
       sodipodi:nodetypes="ccccc" />
    <path
       style="fill:#007cc1;stroke:#000000;stroke-width:0;stroke-linecap:butt;stroke-linejoin:miter;stroke-opacity:1;stroke-miterlimit:4;stroke-dasharray:none;fill-opacity:1"
       d="m 107.50154,107.14109 -4.20521,-4.36252 -20.228825,11.97781 0.06641,6.48795 24.367625,-14.10324"
       id="path875"
       inkscape:connector-curvature="0"
       sodipodi:nodetypes="ccccc" />
    <path
       style="opacity:1;vector-effect:none;fill:#0034ff;fill-opacity:1;stroke:#2000ea;stroke-width:0;stroke-linecap:butt;stroke-linejoin:miter;stroke-miterlimit:4;stroke-dasharray:none;stroke-dashoffset:0;stroke-opacity:1"
       d="M 379.00977 815.32422 L 364.51758 829.81641 L 364.51758 842.76172 C 367.19808 843.99516 369.08789 846.70999 369.08789 849.82617 C 369.08789 854.08218 365.57047 857.60547 361.31445 857.60547 C 357.05844 857.60547 353.54102 854.08218 353.54102 849.82617 C 353.54102 846.71596 355.42339 844.0063 358.0957 842.76953 L 358.0957 836.23828 L 320.00977 874.32422 L 358.03711 912.35156 L 358.03711 880.49609 C 355.39635 879.24679 353.54102 876.5559 353.54102 873.46875 C 353.54099 869.2127 357.05841 865.69727 361.31445 865.69727 C 365.57049 865.69727 369.08792 869.2127 369.08789 873.46875 C 369.08789 876.60466 367.17436 879.33437 364.4668 880.55664 L 364.4668 918.78125 L 379.00977 933.32422 L 438.00977 874.32422 L 437.16992 873.48438 L 386.9668 873.48438 L 386.9668 891.69336 C 389.65871 892.92213 391.55664 895.64307 391.55664 898.76758 C 391.55668 903.02359 388.04117 906.54688 383.78516 906.54688 C 379.52911 906.54688 376.00388 903.02359 376.00391 898.76758 C 376.00391 895.66813 377.8774 892.96728 380.53711 891.72461 L 380.53711 870.27344 L 383.74805 867.05469 L 430.74023 867.05469 L 379.00977 815.32422 z "
       transform="scale(0.26458333)"
       id="rect1103" />
    <path
       style="fill:none;stroke:#00ff6f;stroke-width:1.70000005;stroke-linecap:butt;stroke-linejoin:miter;stroke-miterlimit:1.33333337;stroke-dasharray:none;stroke-opacity:1"
       d="m 168.60255,201.53921 v 22.35729 h 28.97188"
       id="path1105-3"
       inkscape:connector-curvature="0" />
    <path
       style="fill:none;stroke:#00ff6f;stroke-width:1.70000005;stroke-linecap:butt;stroke-linejoin:miter;stroke-miterlimit:1.33333337;stroke-dasharray:none;stroke-opacity:1"
       d="m 174.55568,209.21213 v -7.54063 h 19.84375"
       id="path1115-7"
       inkscape:connector-curvature="0" />
    <path
       style="fill:none;stroke:#00ff6f;stroke-width:1.70000005;stroke-linecap:butt;stroke-linejoin:miter;stroke-miterlimit:1.33333337;stroke-dasharray:none;stroke-opacity:1"
       d="m 168.61711,196.26286 v -12.7 h 29.83177"
       id="path1117-5"
       inkscape:connector-curvature="0" />
    <path
       inkscape:connector-curvature="0"
       id="path2007-92"
       d="m 199.65604,183.43035 a 1.2071614,1.2071614 0 0 1 -1.20716,1.20716 1.2071614,1.2071614 0 0 1 -1.20716,-1.20716 1.2071614,1.2071614 0 0 1 1.20716,-1.20716 1.2071614,1.2071614 0 0 1 1.20716,1.20716 z"
       style="opacity:1;vector-effect:none;fill:#00ff6f;fill-opacity:1;stroke:#00ff6f;stroke-width:1.70000005;stroke-linecap:butt;stroke-linejoin:miter;stroke-miterlimit:1.33333337;stroke-dasharray:none;stroke-dashoffset:0;stroke-opacity:1" />
    <path
       inkscape:connector-curvature="0"
       id="path2007-3-2"
       d="m 169.82625,196.26286 a 1.2071614,1.2071614 0 0 1 -1.20716,1.20716 1.2071614,1.2071614 0 0 1 -1.20716,-1.20716 1.2071614,1.2071614 0 0 1 1.20716,-1.20716 1.2071614,1.2071614 0 0 1 1.20716,1.20716 z"
       style="opacity:1;vector-effect:none;fill:#00ff6f;fill-opacity:1;stroke:#00ff6f;stroke-width:1.70000005;stroke-linecap:butt;stroke-linejoin:miter;stroke-miterlimit:1.33333337;stroke-dasharray:none;stroke-dashoffset:0;stroke-opacity:1" />
    <path
       inkscape:connector-curvature="0"
       id="path2007-5-8"
       d="m 169.82625,202.51837 a 1.2071614,1.2071614 0 0 1 -1.20716,1.20716 1.2071614,1.2071614 0 0 1 -1.20716,-1.20716 1.2071614,1.2071614 0 0 1 1.20716,-1.20717 1.2071614,1.2071614 0 0 1 1.20716,1.20717 z"
       style="opacity:1;vector-effect:none;fill:#00ff6f;fill-opacity:1;stroke:#00ff6f;stroke-width:1.70000005;stroke-linecap:butt;stroke-linejoin:miter;stroke-miterlimit:1.33333337;stroke-dasharray:none;stroke-dashoffset:0;stroke-opacity:1" />
    <path
       inkscape:connector-curvature="0"
       id="path2007-6-9"
       d="m 198.78159,223.85515 a 1.2071614,1.2071614 0 0 1 -1.20716,1.20717 1.2071614,1.2071614 0 0 1 -1.20716,-1.20717 1.2071614,1.2071614 0 0 1 1.20716,-1.20716 1.2071614,1.2071614 0 0 1 1.20716,1.20716 z"
       style="opacity:1;vector-effect:none;fill:#00ff6f;fill-opacity:1;stroke:#00ff6f;stroke-width:1.70000005;stroke-linecap:butt;stroke-linejoin:miter;stroke-miterlimit:1.33333337;stroke-dasharray:none;stroke-dashoffset:0;stroke-opacity:1" />
    <path
       inkscape:connector-curvature="0"
       id="path2007-2-7"
       d="m 175.7711,209.21213 a 1.2071614,1.2071614 0 0 1 -1.20716,1.20717 1.2071614,1.2071614 0 0 1 -1.20716,-1.20717 1.2071614,1.2071614 0 0 1 1.20716,-1.20716 1.2071614,1.2071614 0 0 1 1.20716,1.20716 z"
       style="opacity:1;vector-effect:none;fill:#00ff6f;fill-opacity:1;stroke:#00ff6f;stroke-width:1.70000005;stroke-linecap:butt;stroke-linejoin:miter;stroke-miterlimit:1.33333337;stroke-dasharray:none;stroke-dashoffset:0;stroke-opacity:1" />
    <path
       inkscape:connector-curvature="0"
       id="path2007-9-3"
       d="m 195.60659,201.53921 a 1.2071614,1.2071614 0 0 1 -1.20716,1.20716 1.2071614,1.2071614 0 0 1 -1.20716,-1.20716 1.2071614,1.2071614 0 0 1 1.20716,-1.20717 1.2071614,1.2071614 0 0 1 1.20716,1.20717 z"
       style="opacity:1;vector-effect:none;fill:#00ff6f;fill-opacity:1;stroke:#00ff6f;stroke-width:1.70000005;stroke-linecap:butt;stroke-linejoin:miter;stroke-miterlimit:1.33333337;stroke-dasharray:none;stroke-dashoffset:0;stroke-opacity:1" />
    <path
       style="color:#000000;font-style:normal;font-variant:normal;font-weight:normal;font-stretch:normal;font-size:medium;line-height:normal;font-family:sans-serif;font-variant-ligatures:normal;font-variant-position:normal;font-variant-caps:normal;font-variant-numeric:normal;font-variant-alternates:normal;font-feature-settings:normal;text-indent:0;text-align:start;text-decoration:none;text-decoration-line:none;text-decoration-style:solid;text-decoration-color:#000000;letter-spacing:normal;word-spacing:normal;text-transform:none;writing-mode:lr-tb;direction:ltr;text-orientation:mixed;dominant-baseline:auto;baseline-shift:baseline;text-anchor:start;white-space:normal;shape-padding:0;clip-rule:nonzero;display:inline;overflow:visible;visibility:visible;opacity:1;isolation:auto;mix-blend-mode:normal;color-interpolation:sRGB;color-interpolation-filters:linearRGB;solid-color:#000000;solid-opacity:1;vector-effect:none;fill:#00ff6f;fill-opacity:1;fill-rule:nonzero;stroke:none;stroke-width:1.70000005;stroke-linecap:butt;stroke-linejoin:miter;stroke-miterlimit:1.33333337;stroke-dasharray:none;stroke-dashoffset:0;stroke-opacity:1;color-rendering:auto;image-rendering:auto;shape-rendering:auto;text-rendering:auto;enable-background:accumulate"
       d="m 165.97496,259.1629 v 22.35744 l 0.84961,0.84959 h 28.97265 v -1.69921 H 167.67613 V 259.1629 Z"
       id="path1105-5"
       inkscape:connector-curvature="0" />
    <path
       style="color:#000000;font-style:normal;font-variant:normal;font-weight:normal;font-stretch:normal;font-size:medium;line-height:normal;font-family:sans-serif;font-variant-ligatures:normal;font-variant-position:normal;font-variant-caps:normal;font-variant-numeric:normal;font-variant-alternates:normal;font-feature-settings:normal;text-indent:0;text-align:start;text-decoration:none;text-decoration-line:none;text-decoration-style:solid;text-decoration-color:#000000;letter-spacing:normal;word-spacing:normal;text-transform:none;writing-mode:lr-tb;direction:ltr;text-orientation:mixed;dominant-baseline:auto;baseline-shift:baseline;text-anchor:start;white-space:normal;shape-padding:0;clip-rule:nonzero;display:inline;overflow:visible;visibility:visible;opacity:1;isolation:auto;mix-blend-mode:normal;color-interpolation:sRGB;color-interpolation-filters:linearRGB;solid-color:#000000;solid-opacity:1;vector-effect:none;fill:#00ff6f;fill-opacity:1;fill-rule:nonzero;stroke:none;stroke-width:1.70000005;stroke-linecap:butt;stroke-linejoin:miter;stroke-miterlimit:1.33333337;stroke-dasharray:none;stroke-dashoffset:0;stroke-opacity:1;color-rendering:auto;image-rendering:auto;shape-rendering:auto;text-rendering:auto;enable-background:accumulate"
       d="m 172.77769,258.44415 -0.84961,0.85157 v 7.53907 h 1.70118 v -6.68946 h 18.99218 v -1.70118 z"
       id="path1115-0"
       inkscape:connector-curvature="0" />
    <path
       style="color:#000000;font-style:normal;font-variant:normal;font-weight:normal;font-stretch:normal;font-size:medium;line-height:normal;font-family:sans-serif;font-variant-ligatures:normal;font-variant-position:normal;font-variant-caps:normal;font-variant-numeric:normal;font-variant-alternates:normal;font-feature-settings:normal;text-indent:0;text-align:start;text-decoration:none;text-decoration-line:none;text-decoration-style:solid;text-decoration-color:#000000;letter-spacing:normal;word-spacing:normal;text-transform:none;writing-mode:lr-tb;direction:ltr;text-orientation:mixed;dominant-baseline:auto;baseline-shift:baseline;text-anchor:start;white-space:normal;shape-padding:0;clip-rule:nonzero;display:inline;overflow:visible;visibility:visible;opacity:1;isolation:auto;mix-blend-mode:normal;color-interpolation:sRGB;color-interpolation-filters:linearRGB;solid-color:#000000;solid-opacity:1;vector-effect:none;fill:#00ff6f;fill-opacity:1;fill-rule:nonzero;stroke:none;stroke-width:1.70000005;stroke-linecap:butt;stroke-linejoin:miter;stroke-miterlimit:1.33333337;stroke-dasharray:none;stroke-dashoffset:0;stroke-opacity:1;color-rendering:auto;image-rendering:auto;shape-rendering:auto;text-rendering:auto;enable-background:accumulate"
       d="m 166.8402,240.33673 -0.84961,0.84961 v 12.69922 h 1.69921 v -11.84961 h 28.98242 v -1.69922 z"
       id="path1117-3"
       inkscape:connector-curvature="0" />
    <path
       inkscape:connector-curvature="0"
       id="path2007-61"
       d="m 197.8787,241.05365 a 1.2071614,1.2071614 0 0 1 -1.20716,1.20716 1.2071614,1.2071614 0 0 1 -1.20716,-1.20716 1.2071614,1.2071614 0 0 1 1.20716,-1.20716 1.2071614,1.2071614 0 0 1 1.20716,1.20716 z"
       style="opacity:1;vector-effect:none;fill:#00ff6f;fill-opacity:1;stroke:#00ff6f;stroke-width:1.70000005;stroke-linecap:butt;stroke-linejoin:miter;stroke-miterlimit:1.33333337;stroke-dasharray:none;stroke-dashoffset:0;stroke-opacity:1" />
    <path
       inkscape:connector-curvature="0"
       id="path2007-3-0"
       d="m 168.04891,253.88616 a 1.2071614,1.2071614 0 0 1 -1.20716,1.20716 1.2071614,1.2071614 0 0 1 -1.20716,-1.20716 1.2071614,1.2071614 0 0 1 1.20716,-1.20716 1.2071614,1.2071614 0 0 1 1.20716,1.20716 z"
       style="opacity:1;vector-effect:none;fill:#00ff6f;fill-opacity:1;stroke:#00ff6f;stroke-width:1.70000005;stroke-linecap:butt;stroke-linejoin:miter;stroke-miterlimit:1.33333337;stroke-dasharray:none;stroke-dashoffset:0;stroke-opacity:1" />
    <path
       inkscape:connector-curvature="0"
       id="path2007-5-6"
       d="m 168.04891,260.14167 a 1.2071614,1.2071614 0 0 1 -1.20716,1.20716 1.2071614,1.2071614 0 0 1 -1.20716,-1.20716 1.2071614,1.2071614 0 0 1 1.20716,-1.20717 1.2071614,1.2071614 0 0 1 1.20716,1.20717 z"
       style="opacity:1;vector-effect:none;fill:#00ff6f;fill-opacity:1;stroke:#00ff6f;stroke-width:1.70000005;stroke-linecap:butt;stroke-linejoin:miter;stroke-miterlimit:1.33333337;stroke-dasharray:none;stroke-dashoffset:0;stroke-opacity:1" />
    <path
       inkscape:connector-curvature="0"
       id="path2007-6-3"
       d="m 197.00425,281.47845 a 1.2071614,1.2071614 0 0 1 -1.20716,1.20717 1.2071614,1.2071614 0 0 1 -1.20716,-1.20717 1.2071614,1.2071614 0 0 1 1.20716,-1.20715 1.2071614,1.2071614 0 0 1 1.20716,1.20715 z"
       style="opacity:1;vector-effect:none;fill:#00ff6f;fill-opacity:1;stroke:#00ff6f;stroke-width:1.70000005;stroke-linecap:butt;stroke-linejoin:miter;stroke-miterlimit:1.33333337;stroke-dasharray:none;stroke-dashoffset:0;stroke-opacity:1" />
    <path
       inkscape:connector-curvature="0"
       id="path2007-2-2"
       d="m 173.99376,266.83543 a 1.2071614,1.2071614 0 0 1 -1.20716,1.20717 1.2071614,1.2071614 0 0 1 -1.20716,-1.20717 1.2071614,1.2071614 0 0 1 1.20716,-1.20715 1.2071614,1.2071614 0 0 1 1.20716,1.20715 z"
       style="opacity:1;vector-effect:none;fill:#00ff6f;fill-opacity:1;stroke:#00ff6f;stroke-width:1.70000005;stroke-linecap:butt;stroke-linejoin:miter;stroke-miterlimit:1.33333337;stroke-dasharray:none;stroke-dashoffset:0;stroke-opacity:1" />
    <path
       inkscape:connector-curvature="0"
       id="path2007-9-0"
       d="m 193.82925,259.16251 a 1.2071614,1.2071614 0 0 1 -1.20716,1.20716 1.2071614,1.2071614 0 0 1 -1.20716,-1.20716 1.2071614,1.2071614 0 0 1 1.20716,-1.20717 1.2071614,1.2071614 0 0 1 1.20716,1.20717 z"
       style="opacity:1;vector-effect:none;fill:#00ff6f;fill-opacity:1;stroke:#00ff6f;stroke-width:1.70000005;stroke-linecap:butt;stroke-linejoin:miter;stroke-miterlimit:1.33333337;stroke-dasharray:none;stroke-dashoffset:0;stroke-opacity:1" />
    <rect
       style="opacity:1;vector-effect:none;fill:#00376f;fill-opacity:1;stroke:#00c600;stroke-width:0;stroke-linecap:butt;stroke-linejoin:bevel;stroke-miterlimit:1.33333337;stroke-dasharray:none;stroke-dashoffset:0;stroke-opacity:1"
       id="rect6290-5"
       width="22.07658"
       height="22.07658"
       x="188.12129"
       y="139.66531"
       transform="rotate(45)" />
    <path
       inkscape:connector-curvature="0"
       style="opacity:1;vector-effect:none;fill:#0034ff;fill-opacity:1;stroke:#2000ea;stroke-width:0;stroke-linecap:butt;stroke-linejoin:miter;stroke-miterlimit:4;stroke-dasharray:none;stroke-dashoffset:0;stroke-opacity:1"
       d="m 27.119795,200.5593 -3.8344,3.83439 v 3.42512 c 0.70922,0.32634 1.20923,1.04464 1.20923,1.86913 0,1.12607 -0.93065,2.05827 -2.05672,2.05827 -1.12607,0 -2.05672,-0.9322 -2.05672,-2.05827 0,-0.82291 0.49804,-1.53984 1.20509,-1.86707 v -1.72806 l -10.0769,10.07691 10.0614,10.0614 v -8.42843 c -0.6987,-0.33054 -1.18959,-1.04251 -1.18959,-1.85932 -10e-6,-1.12608 0.93064,-2.0562 2.05672,-2.0562 1.12608,0 2.05673,0.93012 2.05672,2.0562 0,0.82971 -0.50629,1.55195 -1.22266,1.87534 v 10.1136 l 3.84783,3.84782 15.61041,-15.61041 -0.22221,-0.22221 h -13.28291 v 4.81779 c 0.71224,0.32511 1.2144,1.04503 1.2144,1.87172 10e-6,1.12607 -0.93014,2.05828 -2.0562,2.05828 -1.12608,0 -2.0588,-0.93221 -2.05879,-2.05828 0,-0.82006 0.49569,-1.53466 1.19941,-1.86345 v -5.67562 l 0.84956,-0.85163 h 12.43334 z"
       id="rect1103-7" />
    <path
       style="color:#000000;font-style:normal;font-variant:normal;font-weight:normal;font-stretch:normal;font-size:medium;line-height:normal;font-family:sans-serif;font-variant-ligatures:normal;font-variant-position:normal;font-variant-caps:normal;font-variant-numeric:normal;font-variant-alternates:normal;font-feature-settings:normal;text-indent:0;text-align:start;text-decoration:none;text-decoration-line:none;text-decoration-style:solid;text-decoration-color:#000000;letter-spacing:normal;word-spacing:normal;text-transform:none;writing-mode:lr-tb;direction:ltr;text-orientation:mixed;dominant-baseline:auto;baseline-shift:baseline;text-anchor:start;white-space:normal;shape-padding:0;clip-rule:nonzero;display:inline;overflow:visible;visibility:visible;opacity:1;isolation:auto;mix-blend-mode:normal;color-interpolation:sRGB;color-interpolation-filters:linearRGB;solid-color:#000000;solid-opacity:1;vector-effect:none;fill:#0034ff;fill-opacity:1;fill-rule:nonzero;stroke:none;stroke-width:6.42519712;stroke-linecap:butt;stroke-linejoin:miter;stroke-miterlimit:1.33333337;stroke-dasharray:none;stroke-dashoffset:0;stroke-opacity:1;color-rendering:auto;image-rendering:auto;shape-rendering:auto;text-rendering:auto;enable-background:accumulate"
       d="M 358.03711 912.35156 L 358.03711 954.27148 L 361.24805 957.48242 L 470.75195 957.48242 L 470.75195 951.06055 L 364.4668 951.06055 L 364.4668 918.78125 L 358.03711 912.35156 z "
       transform="scale(0.26458333)"
       id="path1105-5-8" />
    <path
       style="color:#000000;font-style:normal;font-variant:normal;font-weight:normal;font-stretch:normal;font-size:medium;line-height:normal;font-family:sans-serif;font-variant-ligatures:normal;font-variant-position:normal;font-variant-caps:normal;font-variant-numeric:normal;font-variant-alternates:normal;font-feature-settings:normal;text-indent:0;text-align:start;text-decoration:none;text-decoration-line:none;text-decoration-style:solid;text-decoration-color:#000000;letter-spacing:normal;word-spacing:normal;text-transform:none;writing-mode:lr-tb;direction:ltr;text-orientation:mixed;dominant-baseline:auto;baseline-shift:baseline;text-anchor:start;white-space:normal;shape-padding:0;clip-rule:nonzero;display:inline;overflow:visible;visibility:visible;opacity:1;isolation:auto;mix-blend-mode:normal;color-interpolation:sRGB;color-interpolation-filters:linearRGB;solid-color:#000000;solid-opacity:1;vector-effect:none;fill:#0034ff;fill-opacity:1;fill-rule:nonzero;stroke:none;stroke-width:6.42519712;stroke-linecap:butt;stroke-linejoin:miter;stroke-miterlimit:1.33333337;stroke-dasharray:none;stroke-dashoffset:0;stroke-opacity:1;color-rendering:auto;image-rendering:auto;shape-rendering:auto;text-rendering:auto;enable-background:accumulate"
       d="M 430.74023 867.05469 L 437.16992 873.48438 L 458.74805 873.48438 L 458.74805 867.05469 L 430.74023 867.05469 z "
       transform="scale(0.26458333)"
       id="path1115-0-6" />
    <path
       style="color:#000000;font-style:normal;font-variant:normal;font-weight:normal;font-stretch:normal;font-size:medium;line-height:normal;font-family:sans-serif;font-variant-ligatures:normal;font-variant-position:normal;font-variant-caps:normal;font-variant-numeric:normal;font-variant-alternates:normal;font-feature-settings:normal;text-indent:0;text-align:start;text-decoration:none;text-decoration-line:none;text-decoration-style:solid;text-decoration-color:#000000;letter-spacing:normal;word-spacing:normal;text-transform:none;writing-mode:lr-tb;direction:ltr;text-orientation:mixed;dominant-baseline:auto;baseline-shift:baseline;text-anchor:start;white-space:normal;shape-padding:0;clip-rule:nonzero;display:inline;overflow:visible;visibility:visible;opacity:1;isolation:auto;mix-blend-mode:normal;color-interpolation:sRGB;color-interpolation-filters:linearRGB;solid-color:#000000;solid-opacity:1;vector-effect:none;fill:#0034ff;fill-opacity:1;fill-rule:nonzero;stroke:none;stroke-width:6.42519712;stroke-linecap:butt;stroke-linejoin:miter;stroke-miterlimit:1.33333337;stroke-dasharray:none;stroke-dashoffset:0;stroke-opacity:1;color-rendering:auto;image-rendering:auto;shape-rendering:auto;text-rendering:auto;enable-background:accumulate"
       d="M 361.30664 798.61719 L 358.0957 801.82812 L 358.0957 836.23828 L 364.51758 829.81641 L 364.51758 805.03906 L 474.05859 805.03906 L 474.05859 798.61719 L 361.30664 798.61719 z "
       transform="scale(0.26458333)"
       id="path1117-3-8" />
    <path
       inkscape:connector-curvature="0"
       id="path2007-61-8"
       d="m 126.6344,212.01777 a 1.2071614,1.2071614 0 0 1 -1.20716,1.20716 1.2071614,1.2071614 0 0 1 -1.20716,-1.20716 1.2071614,1.2071614 0 0 1 1.20716,-1.20716 1.2071614,1.2071614 0 0 1 1.20716,1.20716 z"
       style="opacity:1;vector-effect:none;fill:#0034ff;fill-opacity:1;stroke:#0034ff;stroke-width:1.70000005;stroke-linecap:butt;stroke-linejoin:miter;stroke-miterlimit:1.33333337;stroke-dasharray:none;stroke-dashoffset:0;stroke-opacity:1" />
    <path
       inkscape:connector-curvature="0"
       id="path2007-6-3-1"
       d="m 125.75995,252.44257 a 1.2071614,1.2071614 0 0 1 -1.20716,1.20717 1.2071614,1.2071614 0 0 1 -1.20716,-1.20717 1.2071614,1.2071614 0 0 1 1.20716,-1.20715 1.2071614,1.2071614 0 0 1 1.20716,1.20715 z"
       style="opacity:1;vector-effect:none;fill:#0034ff;fill-opacity:1;stroke:#0034ff;stroke-width:1.70000005;stroke-linecap:butt;stroke-linejoin:miter;stroke-miterlimit:1.33333337;stroke-dasharray:none;stroke-dashoffset:0;stroke-opacity:1" />
    <path
       inkscape:connector-curvature="0"
       id="path2007-9-0-9"
       d="m 122.58495,230.12663 a 1.2071614,1.2071614 0 0 1 -1.20716,1.20716 1.2071614,1.2071614 0 0 1 -1.20716,-1.20716 1.2071614,1.2071614 0 0 1 1.20716,-1.20717 1.2071614,1.2071614 0 0 1 1.20716,1.20717 z"
       style="opacity:1;vector-effect:none;fill:#0034ff;fill-opacity:1;stroke:#0034ff;stroke-width:1.70000005;stroke-linecap:butt;stroke-linejoin:miter;stroke-miterlimit:1.33333337;stroke-dasharray:none;stroke-dashoffset:0;stroke-opacity:1" />
  </g>
</svg>
