<?xml version="1.0" standalone="no"?>
<!DOCTYPE svg PUBLIC "-//W3C//DTD SVG 20010904//EN"
 "http://www.w3.org/TR/2001/REC-SVG-20010904/DTD/svg10.dtd">
<svg version="1.0" xmlns="http://www.w3.org/2000/svg"
 width="672.000000pt" height="672.000000pt" viewBox="0 0 672.000000 672.000000"
 preserveAspectRatio="xMidYMid meet">
<metadata>
Created by potrace 1.11, written by Peter Selinger 2001-2013
</metadata>
<g transform="translate(0.000000,672.000000) scale(0.100000,-0.100000)"
fill="#000000" stroke="none">
<path d="M6180 6704 c-73 -26 -146 -88 -175 -151 -9 -18 -21 -33 -28 -34 -7 0
-954 -1 -2105 -1 l-2093 -1 -65 -64 -64 -64 0 -687 0 -687 123 123 c67 67 125
122 128 122 3 0 6 -112 6 -249 l-1 -249 50 -38 c60 -46 74 -60 74 -72 0 -6 4
-12 9 -14 14 -5 48 -110 50 -157 2 -45 -21 -128 -48 -171 -14 -23 -59 -69 -93
-96 -34 -26 -114 -48 -177 -47 -216 2 -362 231 -275 431 24 54 99 136 135 147
17 6 19 18 19 137 0 124 -1 130 -17 115 -15 -13 -1494 -1493 -1500 -1500 -1
-2 339 -344 757 -762 l759 -759 0 637 0 637 -27 14 c-42 22 -96 81 -123 133
-20 40 -24 62 -23 128 1 44 3 87 6 95 3 8 9 25 13 38 4 12 11 22 16 22 5 0 9
6 9 13 0 14 20 37 66 77 124 106 330 82 436 -51 70 -87 84 -221 34 -322 -30
-61 -58 -93 -112 -126 l-39 -24 0 -764 0 -763 290 -290 290 -290 1177 1177
c1109 1109 1176 1178 1161 1195 -15 17 -4 18 280 18 190 0 297 -4 297 -10 0
-16 84 -96 121 -116 37 -20 35 -19 99 -31 127 -25 263 45 326 168 23 46 28 66
28 134 0 95 -23 154 -81 214 -150 155 -389 122 -499 -68 l-21 -36 -412 1 -412
0 126 -126 126 -125 -998 -5 -998 -5 -1 -355 c0 -195 1 -361 4 -367 2 -7 10
-13 16 -13 27 0 106 -87 132 -145 71 -154 1 -336 -156 -409 -65 -30 -188 -29
-251 2 -62 30 -121 87 -147 143 -62 130 -41 260 60 359 24 23 52 46 63 50 20
7 20 17 21 437 l0 429 62 65 62 64 933 0 c606 0 931 4 930 10 -1 6 -462 470
-1025 1033 l-1022 1022 -79 -77 c-211 -210 -480 -481 -487 -492 -6 -10 -8 -10
-11 1 -7 21 -4 967 3 973 3 4 925 6 2049 6 1957 0 2044 -1 2056 -18 63 -89
145 -134 251 -139 64 -3 82 0 135 25 127 58 188 157 183 294 -4 109 -56 195
-156 258 -58 36 -180 47 -250 23z"/>
<path d="M1650 1950 c-1 -14 -1 -390 -1 -837 l-1 -811 66 -64 66 -63 2042 0
2043 1 24 -36 c106 -157 322 -184 464 -59 103 90 132 248 70 372 -86 171 -323
218 -475 94 -19 -15 -47 -47 -62 -71 l-27 -43 -1977 1 -1977 1 0 642 0 643
-128 127 c-109 110 -127 124 -127 103z"/>
</g>
</svg>
